<svg width="1280" height="800" viewBox="0 0 1280 800" fill="none" xmlns="http://www.w3.org/2000/svg">
<path d="M162.746 288C168.079 282.667 173.413 282.667 178.746 288C184.079 282.667 189.413 282.667 194.746 288" stroke="#2C363F" stroke-width="2" stroke-linecap="round" stroke-linejoin="round"/>
<path d="M202.746 272C208.079 266.667 213.413 266.667 218.746 272C224.079 266.667 229.413 266.667 234.746 272" stroke="#2C363F" stroke-width="2" stroke-linecap="round" stroke-linejoin="round"/>
<path d="M1042.75 304C1048.08 298.667 1053.41 298.667 1058.75 304C1064.08 298.667 1069.41 298.667 1074.75 304" stroke="#2C363F" stroke-width="2" stroke-linecap="round" stroke-linejoin="round"/>
<path d="M1082.75 320C1088.08 314.667 1093.41 314.667 1098.75 320C1104.08 314.667 1109.41 314.667 1114.75 320" stroke="#2C363F" stroke-width="2" stroke-linecap="round" stroke-linejoin="round"/>
<path d="M834.746 192C834.746 176 842.746 168 858.746 168C869.413 146.667 885.413 136 906.746 136C928.079 136 944.079 146.667 954.746 168C970.746 168 978.746 176 978.746 192H834.746Z" fill="#C0D8DD"/>
<path d="M459.223 155.631C459.223 134.68 469.696 124.205 490.641 124.205C504.605 96.2706 525.551 82.3036 553.479 82.3036C581.406 82.3036 602.352 96.2706 616.316 124.205C637.262 124.205 647.735 134.68 647.735 155.631H459.223Z" fill="#C0D8DD"/>
<path d="M246.809 199.973C246.809 187.304 253.148 180.969 265.826 180.969C274.278 164.077 286.956 155.631 303.86 155.631C320.764 155.631 333.442 164.077 341.894 180.969C354.572 180.969 360.911 187.304 360.911 199.973H246.809Z" fill="#C0D8DD"/>
<path d="M754.746 672L962.746 192V672H754.746Z" fill="#7A9EA3"/>
<path d="M962.746 192L1202.75 672H962.746V192Z" fill="#63888D"/>
<path d="M962.749 192L909.855 314.073L938.749 328L962.749 296V192Z" fill="#E8F0F0"/>
<path d="M962.746 192V296L986.746 336L1021.95 310.396L962.746 192Z" fill="#D0E0E0"/>
<path d="M434.746 672L722.746 128V672H434.746Z" fill="#749A9E"/>
<path d="M722.746 128L994.746 672H722.746V128Z" fill="#5F8589"/>
<path d="M722.747 128L647.742 269.677L682.747 296L722.747 256V128Z" fill="#E8F0F0"/>
<path d="M722.746 128V256L762.746 304L794.746 272L722.746 128Z" fill="#D0E0E0"/>
<path d="M146.746 672L402.746 224V672H146.746Z" fill="#6A8D92"/>
<path d="M402.746 224L626.746 672H402.746V224Z" fill="#557A7F"/>
<path d="M402.746 224L338.746 336L370.746 360L402.746 320V224Z" fill="#E8F0F0"/>
<path d="M402.746 224V320L434.746 368L462.961 344.41L402.746 224Z" fill="#D0E0E0"/>
<path d="M338.746 672L418.746 320V672H338.746Z" fill="#2D5251"/>
<path d="M418.746 320L498.746 672H418.746V320Z" fill="#244443"/>
<path d="M834.746 672L914.746 368V672H834.746Z" fill="#2D5251"/>
<path d="M914.746 368L994.746 672H914.746V368Z" fill="#244443"/>
<path d="M282.746 448H266.746V672H282.746V448Z" fill="#A87C5F"/>
<path d="M346.746 424C346.746 384.236 314.511 352 274.746 352C234.982 352 202.746 384.236 202.746 424V488C202.746 527.765 234.982 560 274.746 560C314.511 560 346.746 527.765 346.746 488V424Z" fill="#64948F"/>
<path d="M274.746 352C293.842 352 312.155 359.586 325.658 373.088C339.16 386.591 346.746 404.904 346.746 424V488C346.746 507.096 339.16 525.409 325.658 538.912C312.155 552.414 293.842 560 274.746 560V352Z" fill="#55827D"/>
<path d="M986.746 464H970.746V672H986.746V464Z" fill="#A87C5F"/>
<path d="M1042.75 448C1042.75 412.654 1014.09 384 978.746 384C943.4 384 914.746 412.654 914.746 448V496C914.746 531.346 943.4 560 978.746 560C1014.09 560 1042.75 531.346 1042.75 496V448Z" fill="#64948F"/>
<path d="M978.746 384C995.72 384 1012 390.743 1024 402.745C1036 414.747 1042.75 431.026 1042.75 448V496C1042.75 512.974 1036 529.253 1024 541.255C1012 553.257 995.72 560 978.746 560V384Z" fill="#55827D"/>
<path d="M274.746 672L354.746 416V672H274.746Z" fill="#284A4A"/>
<path d="M354.746 416L434.746 672H354.746V416Z" fill="#1F3B3B"/>
<path d="M386.746 672L482.746 384V672H386.746Z" fill="#21403F"/>
<path d="M482.746 384L578.746 672H482.746V384Z" fill="#193332"/>
<path d="M946.746 672L1010.75 448V672H946.746Z" fill="#21403F"/>
<path d="M1010.75 448L1074.75 672H1010.75V448Z" fill="#193332"/>
<path d="M690.746 352L930.746 384L1122.75 672H770.746L690.746 352Z" fill="#C28757"/>
<path d="M642.746 672L690.746 352L738.746 672H642.746Z" fill="#122423"/>
<path d="M690.746 352L770.746 672H738.746L690.746 352Z" fill="#D09B6A"/>
<path d="M546.746 672L690.746 352L642.746 672H546.746Z" fill="#E2B386"/>
<path d="M146.746 624C124.655 624 106.746 641.909 106.746 664C106.746 666.74 107.022 669.415 107.546 672H164.784H185.946C186.471 669.415 186.746 666.74 186.746 664C186.746 641.909 168.837 624 146.746 624Z" fill="#193635"/>
<path d="M210.746 584C179.818 584 154.746 609.072 154.746 640C154.746 651.898 158.457 662.929 164.784 672H185.946H228.762H256.709C263.036 662.929 266.746 651.898 266.746 640C266.746 609.072 241.674 584 210.746 584Z" fill="#193635"/>
<path d="M290.746 592C255.4 592 226.746 620.654 226.746 656C226.746 661.525 227.446 666.886 228.762 672H256.709H352.73C354.046 666.886 354.746 661.525 354.746 656C354.746 620.654 326.092 592 290.746 592Z" fill="#132B2A"/>
<path d="M530.746 608C504.236 608 482.746 629.49 482.746 656C482.746 661.61 483.709 666.996 485.477 672H555.683H576.015C577.784 666.996 578.746 661.61 578.746 656C578.746 629.49 557.256 608 530.746 608Z" fill="#132B2A"/>
<path d="M586.676 632C569.003 632 554.676 646.327 554.676 664C554.676 666.762 555.026 669.443 555.684 672H576.015H617.668C618.326 669.443 618.676 666.762 618.676 664C618.676 646.327 604.349 632 586.676 632Z" fill="#193635"/>
<path d="M1042.75 592C1011.82 592 986.746 617.072 986.746 648C986.746 656.589 988.68 664.726 992.135 672H1083.55H1093.36C1096.81 664.726 1098.75 656.589 1098.75 648C1098.75 617.072 1073.67 592 1042.75 592Z" fill="#193635"/>
<path d="M1122.75 624C1100.65 624 1082.75 641.909 1082.75 664C1082.75 666.74 1083.02 669.415 1083.55 672H1093.36H1154.75H1161.95C1162.47 669.415 1162.75 666.74 1162.75 664C1162.75 641.909 1144.84 624 1122.75 624Z" fill="#132B2A"/>
<path d="M1186.75 640C1169.07 640 1154.75 654.327 1154.75 672L1161.95 672L1218.75 672C1218.75 654.327 1204.42 640 1186.75 640Z" fill="#193635"/>
</svg>
